<?xml version="1.0" encoding="utf-8"?>
<svg version="1.1" id="svg2" width="707.96399" height="735.98132" viewBox="0 620.516 93.618 89.904" xmlns="http://www.w3.org/2000/svg">
  <defs id="defs6">
    <clipPath clipPathUnits="userSpaceOnUse" id="clipPath18">
      <path d="M 0,551.986 H 530.973 V 0 H 0 Z" id="path16"/>
    </clipPath>
  </defs>
  <g id="g8" transform="matrix(1.3333333,0,0,-1.3333333,0,735.98133)">
    <g id="g12">
      <g id="g14" clip-path="url(#clipPath18)">
        <g id="g20" transform="matrix(0.8, 0, 0, 0.8, 18.137152, 49.045288)" style="">
          <path d="M 21.209 41.374 C 0.501 41.374 -16.288 24.585 -16.288 3.873 C -16.288 -12.695 -5.544 -26.75 9.357 -31.711 C 11.234 -32.054 11.917 -30.896 11.917 -29.901 C 11.917 -29.013 11.885 -26.653 11.867 -23.524 C 1.436 -25.79 -0.765 -18.497 -0.765 -18.497 C -2.471 -14.166 -4.929 -13.013 -4.929 -13.013 C -8.334 -10.686 -4.672 -10.732 -4.672 -10.732 C -0.908 -10.999 1.072 -14.597 1.072 -14.597 C 4.417 -20.327 9.85 -18.672 11.986 -17.714 C 12.327 -15.29 13.294 -13.637 14.367 -12.7 C 6.04 -11.754 -2.715 -8.536 -2.715 5.834 C -2.715 9.927 -1.253 13.275 1.146 15.897 C 0.759 16.845 -0.528 20.657 1.512 25.821 C 1.512 25.821 4.661 26.829 11.825 21.976 C 14.816 22.808 18.025 23.224 21.213 23.238 C 24.397 23.224 27.606 22.808 30.601 21.976 C 37.761 26.829 40.903 25.821 40.903 25.821 C 42.95 20.657 41.663 16.845 41.276 15.897 C 43.679 13.275 45.132 9.927 45.132 5.834 C 45.132 -8.572 36.363 -11.742 28.009 -12.67 C 29.356 -13.828 30.555 -16.116 30.555 -19.615 C 30.555 -24.627 30.509 -28.672 30.509 -29.901 C 30.509 -30.905 31.184 -32.072 33.087 -31.706 C 47.977 -26.736 58.712 -12.691 58.712 3.873 C 58.712 24.585 41.921 41.374 21.209 41.374" style="fill-opacity: 1; fill-rule: evenodd; stroke: none; fill: rgb(255, 255, 255);" id="path22"/>
        </g>
        <g id="g56" transform="translate(224.8979,499.4882)"/>
        <g id="g60" transform="translate(224.8979,496.9882)"/>
        <g id="g64" transform="translate(224.8979,361.9951)"/>
        <g id="g194" transform="translate(152.6083,168.5454)"/>
        <g id="g198" transform="translate(350.6088,217.5547)"/>
        <g id="g230" transform="translate(224.8979,223.4882)"/>
        <g id="g234" transform="translate(224.8979,220.9882)"/>
        <g id="g238" transform="translate(224.8979,85.9951)"/>
        <g id="g242" transform="translate(133.2758,71.4795)"/>
        <g id="g246" transform="translate(137.5537,70.2851)"/>
        <g id="g250" transform="translate(150.1655,67.0761)"/>
        <g id="g308" transform="translate(335.6333,72.6504)"/>
        <g id="g312" transform="translate(344.3334,67.0761)"/>
        <g id="g316" transform="translate(348.3647,70.2871)"/>
        <g id="g320" transform="translate(354.4545,65.1211)"/>
        <g id="g324" transform="translate(362.1342,68.4629)"/>
        <g id="g328" transform="translate(365.3569,70.2871)"/>
        <g id="g332" transform="translate(318.2573,54.9863)"/>
        <g id="g336" transform="translate(323.3276,51.7773)"/>
        <g id="g340" transform="translate(330.2456,55.8867)"/>
        <g id="g344" transform="translate(339.1362,49.6826)"/>
        <g id="g348" transform="translate(343.2172,56.3789)"/>
        <g id="g352" transform="translate(350.8432,52.7968)"/>
        <g id="g356" transform="translate(361.3911,53.6845)"/>
        <g id="g360" transform="translate(363.2924,55.8867)"/>
        <g id="g364" transform="translate(379.1928,53.1269)"/>
      </g>
    </g>
  </g>
</svg>